<?xml version="1.0" encoding="iso-8859-1"?>
<!-- Generator: Adobe Illustrator 17.1.0, SVG Export Plug-In . SVG Version: 6.00 Build 0)  -->
<!DOCTYPE svg PUBLIC "-//W3C//DTD SVG 1.1//EN" "http://www.w3.org/Graphics/SVG/1.1/DTD/svg11.dtd">
<svg version="1.1" id="Capa_1" xmlns="http://www.w3.org/2000/svg" xmlns:xlink="http://www.w3.org/1999/xlink" x="0px" y="0px"
	 viewBox="0 0 369.946 369.946" style="enable-background:new 0 0 369.946 369.946;" xml:space="preserve">
<path d="M330.15,343.082c0,4.971-4.029,9-9,9h-39.073c-4.971,0-9-4.029-9-9s4.029-9,9-9h39.073
	C326.121,334.082,330.15,338.112,330.15,343.082z M153.671,49.164c0-17.261,14.042-31.303,31.302-31.303
	s31.302,14.042,31.302,31.303s-14.042,31.303-31.302,31.303S153.671,66.425,153.671,49.164z M171.671,49.164
	c0,7.335,5.967,13.303,13.302,13.303s13.302-5.968,13.302-13.303s-5.967-13.303-13.302-13.303S171.671,41.828,171.671,49.164z
	 M122.076,171.876c4.567,1.97,9.86-0.132,11.83-4.695l13.719-31.776c7.452-17.259,15.638-24.298,28.252-24.298h18.195
	c12.614,0,20.8,7.04,28.252,24.298l13.719,31.777c1.468,3.401,4.784,5.435,8.268,5.435c1.189,0,2.4-0.238,3.563-0.74
	c4.563-1.97,6.666-7.267,4.695-11.83l-13.719-31.777c-6.519-15.095-18.252-35.163-44.777-35.163h-18.195
	c-26.525,0-38.259,20.068-44.777,35.163l-13.719,31.777C115.41,164.609,117.512,169.905,122.076,171.876z M369.207,339.516
	l-13.718-31.779c-6.52-15.095-18.253-35.162-44.774-35.162h-18.197c-26.523,0-38.259,20.067-44.779,35.164l-13.717,31.777
	c-1.971,4.563,0.133,9.86,4.696,11.83c1.162,0.501,2.372,0.739,3.563,0.739c3.482,0,6.799-2.034,8.267-5.436l13.717-31.775
	c7.454-17.259,15.641-24.299,28.254-24.299h18.197c12.611,0,20.796,7.04,28.249,24.297l13.718,31.777
	c1.969,4.563,7.26,6.667,11.83,4.696C369.075,349.376,371.177,344.08,369.207,339.516z M270.31,228.633
	c0-17.26,14.044-31.302,31.306-31.302c17.26,0,31.301,14.042,31.301,31.302c0,17.261-14.041,31.303-31.301,31.303
	C284.354,259.936,270.31,245.894,270.31,228.633z M288.31,228.633c0,7.335,5.969,13.303,13.306,13.303
	c7.334,0,13.301-5.968,13.301-13.303c0-7.335-5.967-13.302-13.301-13.302C294.279,215.331,288.31,221.298,288.31,228.633z
	 M122.208,307.739c-6.516-15.095-18.247-35.164-44.775-35.164H59.234c-26.523,0-38.257,20.067-44.776,35.164L0.74,339.516
	c-1.971,4.563,0.132,9.86,4.695,11.83c4.567,1.968,9.861-0.133,11.83-4.696l13.718-31.776c7.453-17.259,15.639-24.299,28.251-24.299
	h18.199c12.615,0,20.8,7.04,28.25,24.297L119.4,346.65c1.468,3.401,4.783,5.436,8.267,5.436c1.19,0,2.4-0.238,3.562-0.739
	c4.563-1.97,6.667-7.267,4.696-11.83L122.208,307.739z M87.873,334.082H48.796c-4.971,0-9,4.029-9,9s4.029,9,9,9h39.076
	c4.971,0,9-4.029,9-9S92.843,334.082,87.873,334.082z M196.704,334.082h-23.461c-4.971,0-9,4.029-9,9s4.029,9,9,9h23.461
	c4.971,0,9-4.029,9-9S201.674,334.082,196.704,334.082z M37.031,228.633c0-17.26,14.042-31.302,31.302-31.302
	c17.261,0,31.304,14.042,31.304,31.302c0,17.261-14.043,31.303-31.304,31.303C51.073,259.936,37.031,245.894,37.031,228.633z
	 M55.031,228.633c0,7.335,5.967,13.303,13.302,13.303c7.336,0,13.304-5.968,13.304-13.303c0-7.335-5.968-13.302-13.304-13.302
	C60.998,215.331,55.031,221.298,55.031,228.633z M204.511,172.612c4.971,0,9-4.029,9-9s-4.029-9-9-9h-39.076c-4.971,0-9,4.029-9,9
	s4.029,9,9,9H204.511z M153.671,228.633c0-17.26,14.042-31.302,31.302-31.302s31.302,14.042,31.302,31.302
	c0,17.261-14.042,31.303-31.302,31.303S153.671,245.894,153.671,228.633z M171.671,228.633c0,7.335,5.967,13.303,13.302,13.303
	s13.302-5.968,13.302-13.303c0-7.335-5.967-13.302-13.302-13.302S171.671,221.298,171.671,228.633z M221.513,282.298
	c-7.667-6.451-16.899-9.722-27.441-9.722h-18.195c-10.545,0-19.778,3.271-27.441,9.724c-3.803,3.201-4.29,8.878-1.089,12.681
	c1.78,2.114,4.326,3.204,6.89,3.204c2.046,0,4.104-0.694,5.792-2.115c4.39-3.696,9.574-5.493,15.849-5.493h18.195
	c6.272,0,11.458,1.797,15.852,5.495c3.806,3.2,9.481,2.711,12.682-1.092C225.805,291.175,225.316,285.498,221.513,282.298z"/>
<g>
</g>
<g>
</g>
<g>
</g>
<g>
</g>
<g>
</g>
<g>
</g>
<g>
</g>
<g>
</g>
<g>
</g>
<g>
</g>
<g>
</g>
<g>
</g>
<g>
</g>
<g>
</g>
<g>
</g>
</svg>
